<mxfile host="65bd71144e">
    <diagram id="KSrTSbuZyo7o0KmYpm7q" name="Page-1">
        <mxGraphModel dx="1541" dy="634" grid="1" gridSize="10" guides="1" tooltips="1" connect="1" arrows="1" fold="1" page="1" pageScale="1" pageWidth="850" pageHeight="1100" math="0" shadow="0">
            <root>
                <mxCell id="0"/>
                <mxCell id="1" parent="0"/>
                <mxCell id="38" style="edgeStyle=none;html=1;fontSize=21;" edge="1" parent="1" target="57">
                    <mxGeometry relative="1" as="geometry">
                        <mxPoint x="468.913043478261" y="240" as="sourcePoint"/>
                        <mxPoint x="147.78260869565202" y="340" as="targetPoint"/>
                        <Array as="points">
                            <mxPoint x="470" y="290"/>
                            <mxPoint x="157" y="290"/>
                        </Array>
                    </mxGeometry>
                </mxCell>
                <mxCell id="39" style="edgeStyle=none;html=1;fontSize=21;" edge="1" parent="1">
                    <mxGeometry relative="1" as="geometry">
                        <mxPoint x="468.913043478261" y="240" as="sourcePoint"/>
                        <mxPoint x="358" y="340" as="targetPoint"/>
                        <Array as="points">
                            <mxPoint x="470" y="290"/>
                            <mxPoint x="358" y="290"/>
                        </Array>
                    </mxGeometry>
                </mxCell>
                <mxCell id="40" style="edgeStyle=none;html=1;fontSize=21;" edge="1" parent="1">
                    <mxGeometry relative="1" as="geometry">
                        <mxPoint x="468.913043478261" y="240" as="sourcePoint"/>
                        <mxPoint x="559" y="340" as="targetPoint"/>
                        <Array as="points">
                            <mxPoint x="470" y="290"/>
                            <mxPoint x="560" y="290"/>
                        </Array>
                    </mxGeometry>
                </mxCell>
                <mxCell id="41" style="edgeStyle=none;html=1;fontSize=21;" edge="1" parent="1">
                    <mxGeometry relative="1" as="geometry">
                        <mxPoint x="468.913043478261" y="240" as="sourcePoint"/>
                        <mxPoint x="759" y="340" as="targetPoint"/>
                        <Array as="points">
                            <mxPoint x="470" y="290"/>
                            <mxPoint x="760" y="290"/>
                        </Array>
                    </mxGeometry>
                </mxCell>
                <mxCell id="42" style="edgeStyle=none;html=1;fontSize=21;" edge="1" parent="1" target="69">
                    <mxGeometry relative="1" as="geometry">
                        <mxPoint x="148.62068965517255" y="470" as="sourcePoint"/>
                        <mxPoint x="-165" y="590" as="targetPoint"/>
                        <Array as="points">
                            <mxPoint x="150" y="550"/>
                            <mxPoint x="-160" y="550"/>
                        </Array>
                    </mxGeometry>
                </mxCell>
                <mxCell id="43" style="edgeStyle=none;html=1;fontSize=21;" edge="1" parent="1" target="72">
                    <mxGeometry relative="1" as="geometry">
                        <mxPoint x="148.62068965517255" y="470" as="sourcePoint"/>
                        <mxPoint x="39.04761904761904" y="590" as="targetPoint"/>
                        <Array as="points">
                            <mxPoint x="150" y="550"/>
                            <mxPoint x="40" y="550"/>
                        </Array>
                    </mxGeometry>
                </mxCell>
                <mxCell id="44" style="edgeStyle=none;html=1;fontSize=21;" edge="1" parent="1" target="76">
                    <mxGeometry relative="1" as="geometry">
                        <mxPoint x="148.62068965517255" y="470" as="sourcePoint"/>
                        <mxPoint x="237.80952380952385" y="590" as="targetPoint"/>
                        <Array as="points">
                            <mxPoint x="150" y="550"/>
                            <mxPoint x="238" y="550"/>
                        </Array>
                    </mxGeometry>
                </mxCell>
                <mxCell id="45" style="edgeStyle=none;html=1;fontSize=21;" edge="1" parent="1" target="79">
                    <mxGeometry relative="1" as="geometry">
                        <mxPoint x="148.62068965517255" y="470" as="sourcePoint"/>
                        <mxPoint x="439.0476190476188" y="590" as="targetPoint"/>
                        <Array as="points">
                            <mxPoint x="150" y="550"/>
                            <mxPoint x="440" y="550"/>
                        </Array>
                    </mxGeometry>
                </mxCell>
                <mxCell id="50" value="" style="group" vertex="1" connectable="0" parent="1">
                    <mxGeometry x="390" y="120" width="154" height="124" as="geometry"/>
                </mxCell>
                <mxCell id="48" value="" style="sketch=0;pointerEvents=1;shadow=0;dashed=0;html=1;strokeColor=none;labelPosition=center;verticalLabelPosition=bottom;verticalAlign=top;outlineConnect=0;align=center;shape=mxgraph.office.concepts.folder;fillColor=#5ECED6;fillStyle=auto;fontSize=21;fontColor=#ffffff;" vertex="1" parent="50">
                    <mxGeometry width="154" height="124" as="geometry"/>
                </mxCell>
                <mxCell id="49" value="&lt;font style=&quot;font-size: 21px;&quot;&gt;com.ceid&lt;/font&gt;" style="text;html=1;strokeColor=none;fillColor=none;align=center;verticalAlign=middle;whiteSpace=wrap;rounded=0;" vertex="1" parent="50">
                    <mxGeometry x="2" y="54" width="150" height="30" as="geometry"/>
                </mxCell>
                <mxCell id="56" value="" style="group" vertex="1" connectable="0" parent="1">
                    <mxGeometry x="80" y="350" width="154" height="124" as="geometry"/>
                </mxCell>
                <mxCell id="57" value="" style="sketch=0;pointerEvents=1;shadow=0;dashed=0;html=1;strokeColor=none;labelPosition=center;verticalLabelPosition=bottom;verticalAlign=top;outlineConnect=0;align=center;shape=mxgraph.office.concepts.folder;fillColor=#5ECED6;fillStyle=auto;fontSize=21;" vertex="1" parent="56">
                    <mxGeometry width="154" height="124" as="geometry"/>
                </mxCell>
                <mxCell id="58" value="&lt;font style=&quot;font-size: 21px;&quot;&gt;model&lt;/font&gt;" style="text;html=1;strokeColor=none;fillColor=none;align=center;verticalAlign=middle;whiteSpace=wrap;rounded=0;" vertex="1" parent="56">
                    <mxGeometry x="2" y="54" width="150" height="30" as="geometry"/>
                </mxCell>
                <mxCell id="59" value="" style="group" vertex="1" connectable="0" parent="1">
                    <mxGeometry x="271" y="350" width="154" height="124" as="geometry"/>
                </mxCell>
                <mxCell id="60" value="" style="sketch=0;pointerEvents=1;shadow=0;dashed=0;html=1;strokeColor=none;labelPosition=center;verticalLabelPosition=bottom;verticalAlign=top;outlineConnect=0;align=center;shape=mxgraph.office.concepts.folder;fillColor=#5ECED6;fillStyle=auto;fontSize=21;" vertex="1" parent="59">
                    <mxGeometry width="154" height="124" as="geometry"/>
                </mxCell>
                <mxCell id="61" value="&lt;font style=&quot;font-size: 21px;&quot;&gt;Network&lt;/font&gt;" style="text;html=1;strokeColor=none;fillColor=none;align=center;verticalAlign=middle;whiteSpace=wrap;rounded=0;" vertex="1" parent="59">
                    <mxGeometry x="2" y="54" width="150" height="30" as="geometry"/>
                </mxCell>
                <mxCell id="62" value="" style="group" vertex="1" connectable="0" parent="1">
                    <mxGeometry x="470" y="350" width="154" height="124" as="geometry"/>
                </mxCell>
                <mxCell id="63" value="" style="sketch=0;pointerEvents=1;shadow=0;dashed=0;html=1;strokeColor=none;labelPosition=center;verticalLabelPosition=bottom;verticalAlign=top;outlineConnect=0;align=center;shape=mxgraph.office.concepts.folder;fillColor=#5ECED6;fillStyle=auto;fontSize=21;" vertex="1" parent="62">
                    <mxGeometry width="154" height="124" as="geometry"/>
                </mxCell>
                <mxCell id="64" value="&lt;font style=&quot;font-size: 21px;&quot;&gt;ui&lt;/font&gt;" style="text;html=1;strokeColor=none;fillColor=none;align=center;verticalAlign=middle;whiteSpace=wrap;rounded=0;" vertex="1" parent="62">
                    <mxGeometry x="2" y="54" width="150" height="30" as="geometry"/>
                </mxCell>
                <mxCell id="65" value="" style="group" vertex="1" connectable="0" parent="1">
                    <mxGeometry x="650" y="350" width="154" height="124" as="geometry"/>
                </mxCell>
                <mxCell id="66" value="" style="sketch=0;pointerEvents=1;shadow=0;dashed=0;html=1;strokeColor=none;labelPosition=center;verticalLabelPosition=bottom;verticalAlign=top;outlineConnect=0;align=center;shape=mxgraph.office.concepts.folder;fillColor=#5ECED6;fillStyle=auto;fontSize=21;" vertex="1" parent="65">
                    <mxGeometry width="154" height="124" as="geometry"/>
                </mxCell>
                <mxCell id="67" value="&lt;font style=&quot;font-size: 21px;&quot;&gt;util&lt;/font&gt;" style="text;html=1;strokeColor=none;fillColor=none;align=center;verticalAlign=middle;whiteSpace=wrap;rounded=0;" vertex="1" parent="65">
                    <mxGeometry x="2" y="54" width="150" height="30" as="geometry"/>
                </mxCell>
                <mxCell id="68" value="" style="group" vertex="1" connectable="0" parent="1">
                    <mxGeometry x="-250" y="590" width="180" height="124" as="geometry"/>
                </mxCell>
                <mxCell id="69" value="" style="sketch=0;pointerEvents=1;shadow=0;dashed=0;html=1;strokeColor=none;labelPosition=center;verticalLabelPosition=bottom;verticalAlign=top;outlineConnect=0;align=center;shape=mxgraph.office.concepts.folder;fillColor=#5ECED6;fillStyle=auto;fontSize=21;" vertex="1" parent="68">
                    <mxGeometry width="180" height="124" as="geometry"/>
                </mxCell>
                <mxCell id="70" value="&lt;font style=&quot;font-size: 21px;&quot;&gt;payment_methods&lt;/font&gt;" style="text;html=1;strokeColor=none;fillColor=none;align=center;verticalAlign=middle;whiteSpace=wrap;rounded=0;" vertex="1" parent="68">
                    <mxGeometry x="2.3376623376623376" y="54" width="175.32467532467533" height="30" as="geometry"/>
                </mxCell>
                <mxCell id="71" value="" style="group" vertex="1" connectable="0" parent="1">
                    <mxGeometry x="-40" y="590" width="154" height="124" as="geometry"/>
                </mxCell>
                <mxCell id="72" value="" style="sketch=0;pointerEvents=1;shadow=0;dashed=0;html=1;strokeColor=none;labelPosition=center;verticalLabelPosition=bottom;verticalAlign=top;outlineConnect=0;align=center;shape=mxgraph.office.concepts.folder;fillColor=#5ECED6;fillStyle=auto;fontSize=21;" vertex="1" parent="71">
                    <mxGeometry width="154" height="124" as="geometry"/>
                </mxCell>
                <mxCell id="73" value="&lt;font style=&quot;font-size: 21px;&quot;&gt;service&lt;/font&gt;" style="text;html=1;strokeColor=none;fillColor=none;align=center;verticalAlign=middle;whiteSpace=wrap;rounded=0;" vertex="1" parent="71">
                    <mxGeometry x="2" y="54" width="150" height="30" as="geometry"/>
                </mxCell>
                <mxCell id="75" value="" style="group" vertex="1" connectable="0" parent="1">
                    <mxGeometry x="160" y="590" width="154" height="124" as="geometry"/>
                </mxCell>
                <mxCell id="76" value="" style="sketch=0;pointerEvents=1;shadow=0;dashed=0;html=1;strokeColor=none;labelPosition=center;verticalLabelPosition=bottom;verticalAlign=top;outlineConnect=0;align=center;shape=mxgraph.office.concepts.folder;fillColor=#5ECED6;fillStyle=auto;fontSize=21;" vertex="1" parent="75">
                    <mxGeometry width="154" height="124" as="geometry"/>
                </mxCell>
                <mxCell id="77" value="&lt;font style=&quot;font-size: 21px;&quot;&gt;transport&lt;/font&gt;" style="text;html=1;strokeColor=none;fillColor=none;align=center;verticalAlign=middle;whiteSpace=wrap;rounded=0;" vertex="1" parent="75">
                    <mxGeometry x="2" y="54" width="150" height="30" as="geometry"/>
                </mxCell>
                <mxCell id="78" value="" style="group" vertex="1" connectable="0" parent="1">
                    <mxGeometry x="360" y="590" width="154" height="124" as="geometry"/>
                </mxCell>
                <mxCell id="79" value="" style="sketch=0;pointerEvents=1;shadow=0;dashed=0;html=1;strokeColor=none;labelPosition=center;verticalLabelPosition=bottom;verticalAlign=top;outlineConnect=0;align=center;shape=mxgraph.office.concepts.folder;fillColor=#5ECED6;fillStyle=auto;fontSize=21;" vertex="1" parent="78">
                    <mxGeometry width="154" height="124" as="geometry"/>
                </mxCell>
                <mxCell id="80" value="&lt;font style=&quot;font-size: 21px;&quot;&gt;users&lt;/font&gt;" style="text;html=1;strokeColor=none;fillColor=none;align=center;verticalAlign=middle;whiteSpace=wrap;rounded=0;" vertex="1" parent="78">
                    <mxGeometry x="2" y="54" width="150" height="30" as="geometry"/>
                </mxCell>
            </root>
        </mxGraphModel>
    </diagram>
</mxfile>